<?xml version="1.0" standalone="no"?>
<!DOCTYPE svg PUBLIC "-//W3C//DTD SVG 20010904//EN"
 "http://www.w3.org/TR/2001/REC-SVG-20010904/DTD/svg10.dtd">
<svg version="1.0" xmlns="http://www.w3.org/2000/svg"
 width="700.000000pt" height="700.000000pt" viewBox="0 0 700.000000 700.000000"
 preserveAspectRatio="xMidYMid meet">
<metadata>
Created by potrace 1.11, written by Peter Selinger 2001-2013
</metadata>
<g transform="translate(0.000000,700.000000) scale(0.100000,-0.100000)"
fill="#000000" stroke="none">
<path d="M3469 6906 c-2 -32 7 -631 10 -672 1 -6 20 -11 46 -11 l45 0 -4 276
c-3 152 -5 308 -5 347 l-1 71 -45 0 c-26 0 -45 -5 -46 -11z"/>
<path d="M3590 6040 l0 -70 48 -1 c52 0 110 -5 192 -15 30 -4 64 -8 75 -9 11
-1 34 -5 50 -9 17 -3 44 -9 60 -12 68 -11 266 -68 354 -101 627 -234 1161
-759 1404 -1378 44 -111 102 -300 116 -380 6 -33 13 -71 16 -85 3 -14 8 -43
10 -65 3 -22 7 -51 10 -65 3 -14 5 -45 6 -70 1 -25 6 -50 10 -55 6 -8 76 -11
122 -6 15 2 -1 159 -34 331 -122 637 -494 1206 -1047 1601 -45 32 -84 59 -87
59 -2 0 -23 13 -47 29 -113 75 -365 191 -537 248 -90 29 -297 79 -361 87 -25
4 -56 8 -70 10 -41 7 -130 16 -212 21 l-78 6 0 -71z"/>
<path d="M3429 6096 c-2 -2 -51 -6 -109 -10 -350 -20 -735 -137 -1057 -321
-516 -295 -913 -755 -1128 -1305 -47 -120 -104 -316 -120 -410 -3 -19 -8 -42
-10 -50 -2 -8 -7 -35 -10 -60 -3 -25 -8 -56 -10 -70 -3 -14 -7 -54 -10 -90
l-6 -66 67 2 c36 2 67 4 69 6 1 2 5 35 9 73 6 60 20 157 41 267 12 62 76 271
111 359 264 671 819 1195 1502 1419 198 64 393 101 611 115 41 3 75 6 77 8 7
6 7 115 0 125 -7 12 -19 15 -27 8z"/>
<path d="M3723 4557 c-4 -6 -6 -418 -3 -767 l0 -75 57 2 c32 0 61 1 66 2 4 1
7 161 7 356 l0 355 635 0 c619 0 637 -1 698 -21 290 -98 337 -482 79 -648 -81
-52 -125 -57 -459 -57 -167 1 -303 -1 -303 -4 0 -6 35 -44 194 -214 61 -66
138 -149 171 -185 33 -36 76 -82 95 -102 20 -20 72 -77 115 -125 44 -48 94
-101 111 -118 17 -17 80 -85 140 -151 60 -66 120 -132 134 -146 31 -32 214
-229 268 -288 l40 -44 60 124 c87 182 149 362 191 554 19 89 23 112 36 210 4
28 9 61 11 75 2 14 6 87 9 163 l6 137 -70 0 -69 0 -2 -97 c-1 -101 -3 -123
-15 -233 -5 -52 -33 -201 -60 -324 -17 -76 -123 -366 -135 -366 -3 0 -43 39
-87 88 -45 48 -94 101 -109 118 -139 147 -260 278 -276 296 -11 12 -49 54 -86
93 -74 78 -266 285 -330 355 -23 25 -42 47 -42 50 0 3 75 5 168 5 219 1 262
10 362 73 282 179 315 565 67 788 -74 66 -160 107 -255 120 -68 9 -1413 10
-1419 1z"/>
<path d="M1610 3826 l0 -726 65 0 65 0 1 603 c0 331 1 627 2 657 l2 55 435 1
c370 0 447 -2 515 -17 162 -33 269 -93 396 -219 51 -50 103 -114 127 -155 44
-76 90 -201 93 -256 2 -19 6 -39 10 -44 8 -11 115 -12 126 -2 10 11 -17 146
-45 222 -87 237 -286 441 -522 538 -62 25 -101 37 -180 53 -19 4 -272 9 -562
11 l-528 4 0 -725z"/>
<path d="M159 3698 c-1 -2 -2 -22 -4 -45 -1 -35 1 -42 19 -45 12 -2 167 -3
346 -3 l325 1 3 47 3 47 -345 0 c-191 0 -346 -1 -347 -2z"/>
<path d="M6162 3653 l3 -47 342 0 c220 -1 344 3 346 9 2 6 3 26 3 45 l-1 35
-348 3 -348 2 3 -47z"/>
<path d="M966 3488 c3 -110 13 -250 19 -283 3 -11 7 -37 10 -58 6 -41 33 -182
40 -207 4 -12 20 -15 72 -15 38 1 67 5 66 10 0 6 -10 55 -21 110 -34 163 -49
303 -51 458 l-1 87 -69 0 -68 0 3 -102z"/>
<path d="M3319 3558 c0 -18 -2 -42 -4 -53 -2 -11 -7 -36 -10 -55 -50 -268
-292 -516 -576 -591 -83 -22 -94 -22 -869 -24 -432 -2 -788 -3 -792 -4 -7 -1
38 -140 83 -256 43 -112 160 -330 244 -455 340 -504 831 -867 1401 -1034 108
-32 229 -60 309 -73 17 -2 41 -6 55 -9 40 -7 170 -17 230 -18 l55 -1 2 62 c2
34 0 64 -4 66 -5 3 -51 8 -103 11 -52 3 -106 8 -120 10 -14 3 -56 9 -95 15
-64 10 -80 13 -132 25 -10 2 -31 7 -48 11 -79 18 -270 81 -355 117 -284 119
-541 292 -765 512 -162 160 -251 271 -362 450 -87 140 -222 421 -208 434 2 2
321 6 707 7 387 1 717 5 733 9 96 22 156 41 213 66 196 90 377 269 467 464 48
102 82 254 76 334 -1 8 -21 12 -66 12 l-65 0 -1 -32z"/>
<path d="M3720 3378 c-1 -117 -1 -316 -1 -443 l0 -230 66 -2 65 -2 0 445 0
444 -65 0 -65 0 0 -212z"/>
<path d="M5580 2263 c-120 -199 -376 -484 -570 -634 -329 -255 -736 -431
-1115 -483 -141 -20 -177 -23 -239 -25 -39 -1 -73 -4 -76 -6 -4 -2 -6 -32 -6
-67 l1 -63 60 1 c684 8 1394 363 1860 929 80 97 215 290 215 307 0 9 -81 98
-90 98 -3 0 -21 -26 -40 -57z"/>
<path d="M3469 818 c-1 -13 2 -371 5 -573 l1 -110 48 -1 48 -2 -5 227 c-2 124
-5 281 -5 349 l-1 122 -45 0 c-29 0 -45 -5 -46 -12z"/>
</g>
</svg>
