<svg xmlns="http://www.w3.org/2000/svg" viewBox="0 0 1200 1200"><defs><style>.a,.c{fill:#f0f2f2;}.a{stroke:#f0f2f2;stroke-miterlimit:10;stroke-width:16px;}.b{fill:#00adee;}</style></defs><line class="a" x1="602.02" y1="1058.12" x2="603.95" y2="1177.08"/><line class="a" x1="1175.03" y1="573.76" x2="1056.05" y2="573.76"/><line class="a" x1="145.59" y1="573.76" x2="26.61" y2="573.76"/><path class="b" d="M310.07,887a415.52,415.52,0,0,1-96.25-150.37H434.11q65.55,0,111.87-46.33c29.76-29.76,45.17-64,46.25-105.65-7.53,0-15.12-.16-22.66-.08-1.08,35.48-14.2,64.47-39.52,89.79q-39.64,39.69-95.94,39.68h-252c.67,2.4,1.37,4.75,2.09,7.12q2.36,7.81,5,15.47A438.39,438.39,0,0,0,293.67,903.43c76.7,76.72,180.79,125.24,297.14,128.31,0-7.51-.11-15.11.07-23.32C480.74,1005.45,382.75,959.68,310.07,887Z"/><path class="b" d="M298.47,442.81H434.11q56.26,0,95.94,39.68c23.21,23.21,36,48.7,38.87,80.41,7.56-.09,15.15.05,22.71.06-2.92-37.84-18-68.77-45.65-96.4q-46.32-46.33-111.87-46.34H275.88V668.85h22.59Z"/><path class="b" d="M963.21,801.14a416.84,416.84,0,0,1-66,85.89c-73.66,73.64-172.59,119.63-284.51,121.46-.17,7.6-.22,15.53,0,23.25C731.08,1030,835.76,981.29,913.6,903.43a440,440,0,0,0,66-84.52Z"/><path class="c" d="M188.58,584.58c-7.75,0-15.57-.12-23.31-.06-.1,3.79,0,5.13,0,8.94A440.09,440.09,0,0,0,178,698.6h23.95a415.44,415.44,0,0,1-13.44-105.14C188.47,589.58,188.47,588.44,188.58,584.58Z"/><path class="c" d="M293.67,283.5c-72.75,72.75-120,170.18-127.37,279.33,7.75-.07,15.56-.07,23.31-.08,7.33-102.7,51.93-194.28,120.46-262.83,73.12-73.1,172.39-119,283.33-121.44V155.24C476,157.62,371,206.19,293.67,283.5Z"/><path class="c" d="M637.54,584.7v152h22.61V584.73C652.63,584.5,645.17,584.41,637.54,584.7Z"/><path class="c" d="M1017.76,562.78c7.74,0,15.52.25,23.26,0-6.64-110.37-54-208-127.45-281.47C836.31,204,732.59,155.43,615.24,153l0,23.27c111.24,2.27,208.6,48.15,281.89,121.41C966.52,367.08,1011.24,458.6,1017.76,562.78Z"/><path class="c" d="M1018.69,584.62c0,2.64.07,4,.07,6.63a413.44,413.44,0,0,1-36.17,169.68L830.91,597.67l-9.41-10.13h47.7a81.9,81.9,0,0,0,40.47-10.11,86.68,86.68,0,0,0,19.42-14.77Q954,537.84,954,502.76t-24.88-59.89Q904.22,418,869.2,418H637.51V562.77c7.45.06,14.81.06,22.61-.07V440.6H869.2a62.14,62.14,0,0,1,62.16,62.16q0,25.75-18.2,44a61.42,61.42,0,0,1-16.25,11.89,60.48,60.48,0,0,1-27.71,6.32H770l9.38,10.13L972,782.82l16.71,18c.87-1.62,1.72-3.25,2.6-4.87,2.89-5.47,5.7-11,8.35-16.66A436.78,436.78,0,0,0,1042,591.25c0-2.8,0-3.84-.08-6.63C1033.47,584.74,1026.42,584.58,1018.69,584.62Z"/><line class="a" x1="602.15" y1="14.28" x2="604.08" y2="133.24"/></svg>