<svg xmlns="http://www.w3.org/2000/svg" viewBox="0 0 2000 2000"><defs><style>.a{fill:#00adee;}.b,.c{fill:#fff;stroke:#fff;stroke-miterlimit:10;}.c{stroke-width:41px;}</style></defs><path class="a" d="M904.76,988c13.77-.08,27.55-.24,41.32-.26l-.84-25.88q-4.74-110.61-84.38-190.3-84.66-84.66-204.42-84.66H408.5l.81,426.05v28.27h41.27V1113l-.8-384.78H656.44q102.82,0,175.3,72.51,67.5,67.48,72.14,161.18"/><path class="a" d="M899.45,1030.72q-14.54,68.23-66.9,120.64c-48.29,48.33-106.76,76.37-175.31,76.37H237.91c1.23,4.38,2.5,8.67,3.82,13Q246,1255,250.92,1269a803.5,803.5,0,0,0,190.9,305.38c140.42,140.46,333,229,546.07,234.31l.54-42.41c-201.68-5.16-383.6-88.87-516.65-221.87A761.74,761.74,0,0,1,295.91,1269H657.24q119.79,0,204.43-84.66c43.21-43.22,69.85-95.59,80-153.6"/><path class="a" d="M1665.26,1387.48a762,762,0,0,1-120.61,156.93c-133.61,133.57-316.53,217.45-519.25,222,.84,24.63.84,24.63,1.21,42.38,213.81-4.83,407.16-93.49,548-234.37a804.15,804.15,0,0,0,120.7-154.44Z"/><path class="b" d="M207.79,1027.41a803.93,803.93,0,0,0,22.88,172.47l43.77-.64a758.24,758.24,0,0,1-24.19-170.86C236.1,1028.24,221.94,1027.68,207.79,1027.41Z"/><path class="b" d="M981.24,207C767.34,211.75,583,300.44,442.12,441.35S212.72,773.59,207.75,988.66c14.13.08,28.26.32,42.38.54,4.69-202.36,88.59-384.42,222-517.83C605.31,338.18,779.23,257,981.24,252,980.79,237.88,980.89,221.15,981.24,207Z"/><path class="b" d="M1809,988.19c-5.18-213.25-93.75-406-234.33-546.61C1433.74,300.66,1249.1,211.75,1035.24,207v45c201.86,5.05,376.27,86.49,509.41,219.59,132.94,133,216.67,314.91,221.9,516.52"/><path class="b" d="M1070.17,1026.43v243.21h41.32V1027.31C1097.72,1026.93,1084,1026.6,1070.17,1026.43Z"/><path class="b" d="M1766.51,1028.37A754.75,754.75,0,0,1,1700.74,1318l-277.17-298.32-17.2-18.52h87.16q40.79,0,74-18.47a158.74,158.74,0,0,0,35.48-27q45.43-45.37,45.46-109.45T1603,736.84q-45.45-45.45-109.45-45.42H1070.17V990h41.32V732.69h382q47.07,0,80.33,33.26t33.26,80.33q0,47.07-33.26,80.33a112.5,112.5,0,0,1-29.68,21.72c-15.26,7.73-32.18,11.54-50.65,11.54H1312.19l17.15,18.52L1681.42,1358,1712,1391c1.6-3,3.16-5.93,4.76-8.9,5.28-10,10.41-20.17,15.26-30.44a797.5,797.5,0,0,0,77-323.76Z"/><line class="c" x1="1008.24" y1="171" x2="1008.24" y2="45"/><line class="c" x1="1008.24" y1="1971" x2="1008.24" y2="1845"/><line class="c" x1="45.24" y1="1008" x2="171.24" y2="1008"/><line class="c" x1="1840.76" y1="1007.51" x2="1966.76" y2="1007.51"/></svg>